<svg xmlns="http://www.w3.org/2000/svg" width="1600" height="22" viewBox="0 0 1600 22"><defs><style>.cls-1{fill:#303336;fill-rule:evenodd}</style></defs><path id="Rectangle_32_copy_16" data-name="Rectangle 32 copy 16" class="cls-1" d="M996 818.954h1v22.014h-1v-22.014zm3 21.013h1v1h-1v-1zm3 0h1v1h-1v-1zm3 0h1v1h-1v-1zm3 0h1v1h-1v-1zm3 0h1v1h-1v-1zm3 0h1v1h-1v-1zm3 0h1v1h-1v-1zm3 0h1v1h-1v-1zm3 0h1v1h-1v-1zm3 0h1v1h-1v-1zm3 0h1v1h-1v-1zm3-8h1v9.006h-1v-9.006zm3 8h1v1h-1v-1zm3 0h1v1h-1v-1zm3 0h1v1h-1v-1zm3 0h1v1h-1v-1zm3 0h1v1h-1v-1zm3 0h1v1h-1v-1zm3 0h1v1h-1v-1zm3 0h1v1h-1v-1zm3 0h1v1h-1v-1zm3 0h1v1h-1v-1zm3 0h1v1h-1v-1zm3-8h1v9.006h-1v-9.006zm3 8h1v1h-1v-1zm3 0h1v1h-1v-1zm3 0h1v1h-1v-1zm3 0h1v1h-1v-1zm3 0h1v1h-1v-1zm3 0h1v1h-1v-1zm3 0h1v1h-1v-1zm3 0h1v1h-1v-1zm3 0h1v1h-1v-1zm3 0h1v1h-1v-1zm3 0h1v1h-1v-1zm3-8h1v9.006h-1v-9.006zm3 8h1v1h-1v-1zm3 0h1v1h-1v-1zm3 0h1v1h-1v-1zm3 0h1v1h-1v-1zm3 0h1v1h-1v-1zm3 0h1v1h-1v-1zm3 0h1v1h-1v-1zm3 0h1v1h-1v-1zm3 0h1v1h-1v-1zm3 0h1v1h-1v-1zm3 0h1v1h-1v-1zm3-8h1v9.006h-1v-9.006zm3 8h1v1h-1v-1zm3 0h1v1h-1v-1zm3 0h1v1h-1v-1zm3 0h1v1h-1v-1zm3 0h1v1h-1v-1zm3 0h1v1h-1v-1zm3 0h1v1h-1v-1zm3 0h1v1h-1v-1zm3 0h1v1h-1v-1zm3 0h1v1h-1v-1zm3 0h1v1h-1v-1zm3-8h1v9.006h-1v-9.006zm3 8h1v1h-1v-1zm3 0h1v1h-1v-1zm3 0h1v1h-1v-1zm3 0h1v1h-1v-1zm3 0h1v1h-1v-1zm3 0h1v1h-1v-1zm3 0h1v1h-1v-1zm3 0h1v1h-1v-1zm3 0h1v1h-1v-1zm3 0h1v1h-1v-1zm3 0h1v1h-1v-1zm3-8h1v9.006h-1v-9.006zm3 8h1v1h-1v-1zm3 0h1v1h-1v-1zm3 0h1v1h-1v-1zm3 0h1v1h-1v-1zm3 0h1v1h-1v-1zm3 0h1v1h-1v-1zm3 0h1v1h-1v-1zm3 0h1v1h-1v-1zm3 0h1v1h-1v-1zm3 0h1v1h-1v-1zm3 0h1v1h-1v-1zm3-8h1v9.006h-1v-9.006zm3 8h1v1h-1v-1zm3 0h1v1h-1v-1zm3 0h1v1h-1v-1zm3 0h1v1h-1v-1zm3 0h1v1h-1v-1zm3 0h1v1h-1v-1zm3 0h1v1h-1v-1zm3 0h1v1h-1v-1zm3 0h1v1h-1v-1zm3 0h1v1h-1v-1zm3 0h1v1h-1v-1zm3-8h1v9.006h-1v-9.006zm3 8h1v1h-1v-1zm3 0h1v1h-1v-1zm3 0h1v1h-1v-1zm3 0h1v1h-1v-1zm3 0h1v1h-1v-1zm3 0h1v1h-1v-1zm3 0h1v1h-1v-1zm3 0h1v1h-1v-1zm3 0h1v1h-1v-1zm3 0h1v1h-1v-1zm3 0h1v1h-1v-1zm3-8h1v9.006h-1v-9.006zm3 8h1v1h-1v-1zm3 0h1v1h-1v-1zm3 0h1v1h-1v-1zm3 0h1v1h-1v-1zm3 0h1v1h-1v-1zm3 0h1v1h-1v-1zm3 0h1v1h-1v-1zm3 0h1v1h-1v-1zm3 0h1v1h-1v-1zm3 0h1v1h-1v-1zm3 0h1v1h-1v-1zm3-21.013h1v22.014h-1v-22.014zm3 21.013h1v1h-1v-1zm3 0h1v1h-1v-1zm3 0h1v1h-1v-1zm3 0h1v1h-1v-1zm3 0h1v1h-1v-1zm3 0h1v1h-1v-1zm3 0h1v1h-1v-1zm3 0h1v1h-1v-1zm3 0h1v1h-1v-1zm3 0h1v1h-1v-1zm3 0h1v1h-1v-1zm3-8h1v9.006h-1v-9.006zm3 8h1v1h-1v-1zm3 0h1v1h-1v-1zm3 0h1v1h-1v-1zm3 0h1v1h-1v-1zm3 0h1v1h-1v-1zm3 0h1v1h-1v-1zm3 0h1v1h-1v-1zm3 0h1v1h-1v-1zm3 0h1v1h-1v-1zm3 0h1v1h-1v-1zm3 0h1v1h-1v-1zm3-8h1v9.006h-1v-9.006zm3 8h1v1h-1v-1zm3 0h1v1h-1v-1zm3 0h1v1h-1v-1zm3 0h1v1h-1v-1zm3 0h1v1h-1v-1zm3 0h1v1h-1v-1zm3 0h1v1h-1v-1zm3 0h1v1h-1v-1zm3 0h1v1h-1v-1zm3 0h1v1h-1v-1zm3 0h1v1h-1v-1zm3-8h1v9.006h-1v-9.006zm3 8h1v1h-1v-1zm3 0h1v1h-1v-1zm3 0h1v1h-1v-1zm3 0h1v1h-1v-1zm3 0h1v1h-1v-1zm3 0h1v1h-1v-1zm3 0h1v1h-1v-1zm3 0h1v1h-1v-1zm3 0h1v1h-1v-1zm3 0h1v1h-1v-1zm3 0h1v1h-1v-1zm3-8h1v9.006h-1v-9.006zm3 8h1v1h-1v-1zm3 0h1v1h-1v-1zm3 0h1v1h-1v-1zm3 0h1v1h-1v-1zm3 0h1v1h-1v-1zm3 0h1v1h-1v-1zm3 0h1v1h-1v-1zm3 0h1v1h-1v-1zm3 0h1v1h-1v-1zm3 0h1v1h-1v-1zm3 0h1v1h-1v-1zm3-8h1v9.006h-1v-9.006zm3 8h1v1h-1v-1zm3 0h1v1h-1v-1zm3 0h1v1h-1v-1zm3 0h1v1h-1v-1zm3 0h1v1h-1v-1zm3 0h1v1h-1v-1zm3 0h1v1h-1v-1zm3 0h1v1h-1v-1zm3 0h1v1h-1v-1zm3 0h1v1h-1v-1zm3 0h1v1h-1v-1zm3-8h1v9.006h-1v-9.006zm3 8h1v1h-1v-1zm3 0h1v1h-1v-1zm3 0h1v1h-1v-1zm3 0h1v1h-1v-1zm3 0h1v1h-1v-1zm3 0h1v1h-1v-1zm3 0h1v1h-1v-1zm3 0h1v1h-1v-1zm3 0h1v1h-1v-1zm3 0h1v1h-1v-1zm3 0h1v1h-1v-1zm3-8h1v9.006h-1v-9.006zm3 8h1v1h-1v-1zm3 0h1v1h-1v-1zm3 0h1v1h-1v-1zm3 0h1v1h-1v-1zm3 0h1v1h-1v-1zm3 0h1v1h-1v-1zm3 0h1v1h-1v-1zm3 0h1v1h-1v-1zm3 0h1v1h-1v-1zm3 0h1v1h-1v-1zm3 0h1v1h-1v-1zm3-8h1v9.006h-1v-9.006zm3 8h1v1h-1v-1zm3 0h1v1h-1v-1zm3 0h1v1h-1v-1zm3 0h1v1h-1v-1zm3 0h1v1h-1v-1zm3 0h1v1h-1v-1zm3 0h1v1h-1v-1zm3 0h1v1h-1v-1zm3 0h1v1h-1v-1zm3 0h1v1h-1v-1zm3 0h1v1h-1v-1zm3-8h1v9.006h-1v-9.006zm3 8h1v1h-1v-1zm3 0h1v1h-1v-1zm3 0h1v1h-1v-1zm3 0h1v1h-1v-1zm3 0h1v1h-1v-1zm3 0h1v1h-1v-1zm3 0h1v1h-1v-1zm3 0h1v1h-1v-1zm3 0h1v1h-1v-1zm3 0h1v1h-1v-1zm3 0h1v1h-1v-1zm3-8h1v9.006h-1v-9.006zm3 8h1v1h-1v-1zm3 0h1v1h-1v-1zm3 0h1v1h-1v-1zm3 0h1v1h-1v-1zm3 0h1v1h-1v-1zm3 0h1v1h-1v-1zm3 0h1v1h-1v-1zm3 0h1v1h-1v-1zm3 0h1v1h-1v-1zm3 0h1v1h-1v-1zm3 0h1v1h-1v-1zm3-8h1v9.006h-1v-9.006zm3 8h1v1h-1v-1zm3 0h1v1h-1v-1zm3 0h1v1h-1v-1zm3 0h1v1h-1v-1zm3 0h1v1h-1v-1zm3 0h1v1h-1v-1zm3 0h1v1h-1v-1zm3 0h1v1h-1v-1zm3 0h1v1h-1v-1zm3 0h1v1h-1v-1zm3 0h1v1h-1v-1zm3-8h1v9.006h-1v-9.006zm3 8h1v1h-1v-1zm3 0h1v1h-1v-1zm3 0h1v1h-1v-1zm3 0h1v1h-1v-1zm3 0h1v1h-1v-1zm3 0h1v1h-1v-1zm3 0h1v1h-1v-1zm3 0h1v1h-1v-1zm3 0h1v1h-1v-1zm3 0h1v1h-1v-1zm3 0h1v1h-1v-1zm3-8h1v9.006h-1v-9.006zm3 8h1v1h-1v-1zm3 0h1v1h-1v-1zm3 0h1v1h-1v-1zm3 0h1v1h-1v-1zm3 0h1v1h-1v-1zm3 0h1v1h-1v-1zm3 0h1v1h-1v-1zm3 0h1v1h-1v-1zm3 0h1v1h-1v-1zm3 0h1v1h-1v-1zm3 0h1v1h-1v-1zm3-8h1v9.006h-1v-9.006zm3 8h1v1h-1v-1zm3 0h1v1h-1v-1zm3 0h1v1h-1v-1zm3 0h1v1h-1v-1zm3 0h1v1h-1v-1zm3 0h1v1h-1v-1zm3 0h1v1h-1v-1zm3 0h1v1h-1v-1zm3 0h1v1h-1v-1zm3 0h1v1h-1v-1zm3 0h1v1h-1v-1zm3-8h1v9.006h-1v-9.006zm3 8h1v1h-1v-1zm3 0h1v1h-1v-1zm3 0h1v1h-1v-1zm3 0h1v1h-1v-1zm3 0h1v1h-1v-1zm3 0h1v1h-1v-1zm3 0h1v1h-1v-1zm3 0h1v1h-1v-1zm3 0h1v1h-1v-1zm3 0h1v1h-1v-1zm3 0h1v1h-1v-1zm3-21.013h1v22.014h-1v-22.014zm3 21.013h1v1h-1v-1zm3 0h1v1h-1v-1zm3 0h1v1h-1v-1zm3 0h1v1h-1v-1zm3 0h1v1h-1v-1zm3 0h1v1h-1v-1zm3 0h1v1h-1v-1zm3 0h1v1h-1v-1zm3 0h1v1h-1v-1zm3 0h1v1h-1v-1zm3 0h1v1h-1v-1zm3-8h1v9.006h-1v-9.006zm3 8h1v1h-1v-1zm3 0h1v1h-1v-1zm3 0h1v1h-1v-1zm3 0h1v1h-1v-1zm3 0h1v1h-1v-1zm3 0h1v1h-1v-1zm3 0h1v1h-1v-1zm3 0h1v1h-1v-1zm3 0h1v1h-1v-1zm3 0h1v1h-1v-1zm3 0h1v1h-1v-1zm3-8h1v9.006h-1v-9.006zm3 8h1v1h-1v-1zm3 0h1v1h-1v-1zm3 0h1v1h-1v-1zm3 0h1v1h-1v-1zm3 0h1v1h-1v-1zm3 0h1v1h-1v-1zm3 0h1v1h-1v-1zm3 0h1v1h-1v-1zm3 0h1v1h-1v-1zm3 0h1v1h-1v-1zm3 0h1v1h-1v-1zm3-8h1v9.006h-1v-9.006zm3 8h1v1h-1v-1zm3 0h1v1h-1v-1zm3 0h1v1h-1v-1zm3 0h1v1h-1v-1zm3 0h1v1h-1v-1zm3 0h1v1h-1v-1zm3 0h1v1h-1v-1zm3 0h1v1h-1v-1zm3 0h1v1h-1v-1zm3 0h1v1h-1v-1zm3 0h1v1h-1v-1zm3-8h1v9.006h-1v-9.006zm3 8h1v1h-1v-1zm3 0h1v1h-1v-1zm3 0h1v1h-1v-1zm3 0h1v1h-1v-1zm3 0h1v1h-1v-1zm3 0h1v1h-1v-1zm3 0h1v1h-1v-1zm3 0h1v1h-1v-1zm3 0h1v1h-1v-1zm3 0h1v1h-1v-1zm3 0h1v1h-1v-1zm3-8h1v9.006h-1v-9.006zm3 8h1v1h-1v-1zm3 0h1v1h-1v-1zm3 0h1v1h-1v-1zm3 0h1v1h-1v-1zm3 0h1v1h-1v-1zm3 0h1v1h-1v-1zm3 0h1v1h-1v-1zm3 0h1v1h-1v-1zm3 0h1v1h-1v-1zm3 0h1v1h-1v-1zm3 0h1v1h-1v-1zm-2301-21.013h1v22.014h-1v-22.014zm3 21.013h1v1h-1v-1zm3 0h1v1h-1v-1zm3 0h1v1h-1v-1zm3 0h1v1h-1v-1zm3 0h1v1h-1v-1zm3 0h1v1h-1v-1zm3 0h1v1h-1v-1zm3 0h1v1h-1v-1zm3 0h1v1h-1v-1zm3 0h1v1h-1v-1zm3 0h1v1h-1v-1zm3-8h1v9.006h-1v-9.006zm3 8h1v1h-1v-1zm3 0h1v1h-1v-1zm3 0h1v1h-1v-1zm3 0h1v1h-1v-1zm3 0h1v1h-1v-1zm3 0h1v1h-1v-1zm3 0h1v1h-1v-1zm3 0h1v1h-1v-1zm3 0h1v1h-1v-1zm3 0h1v1h-1v-1zm3 0h1v1h-1v-1zm3-8h1v9.006h-1v-9.006zm3 8h1v1h-1v-1zm3 0h1v1h-1v-1zm3 0h1v1h-1v-1zm3 0h1v1h-1v-1zm3 0h1v1h-1v-1zm3 0h1v1h-1v-1zm3 0h1v1h-1v-1zm3 0h1v1h-1v-1zm3 0h1v1h-1v-1zm3 0h1v1h-1v-1zm3 0h1v1h-1v-1zm3-8h1v9.006h-1v-9.006zm3 8h1v1h-1v-1zm3 0h1v1h-1v-1zm3 0h1v1h-1v-1zm3 0h1v1h-1v-1zm3 0h1v1h-1v-1zm3 0h1v1h-1v-1zm3 0h1v1h-1v-1zm3 0h1v1h-1v-1zm3 0h1v1h-1v-1zm3 0h1v1h-1v-1zm3 0h1v1h-1v-1zm3-8h1v9.006h-1v-9.006zm3 8h1v1h-1v-1zm3 0h1v1h-1v-1zm3 0h1v1h-1v-1zm3 0h1v1H0v-1zm3 0h1v1H3v-1zm3 0h1v1H6v-1zm3 0h1v1H9v-1zm3 0h1v1h-1v-1zm3 0h1v1h-1v-1zm3 0h1v1h-1v-1zm3 0h1v1h-1v-1zm3-8h1v9.006h-1v-9.006zm3 8h1v1h-1v-1zm3 0h1v1h-1v-1zm3 0h1v1h-1v-1zm3 0h1v1h-1v-1zm3 0h1v1h-1v-1zm3 0h1v1h-1v-1zm3 0h1v1h-1v-1zm3 0h1v1h-1v-1zm3 0h1v1h-1v-1zm3 0h1v1h-1v-1zm3 0h1v1h-1v-1zm3-8h1v9.006h-1v-9.006zm3 8h1v1h-1v-1zm3 0h1v1h-1v-1zm3 0h1v1h-1v-1zm3 0h1v1h-1v-1zm3 0h1v1h-1v-1zm3 0h1v1h-1v-1zm3 0h1v1h-1v-1zm3 0h1v1h-1v-1zm3 0h1v1h-1v-1zm3 0h1v1h-1v-1zm3 0h1v1h-1v-1zm3-8h1v9.006h-1v-9.006zm3 8h1v1h-1v-1zm3 0h1v1h-1v-1zm3 0h1v1h-1v-1zm3 0h1v1h-1v-1zm3 0h1v1h-1v-1zm3 0h1v1h-1v-1zm3 0h1v1h-1v-1zm3 0h1v1h-1v-1zm3 0h1v1h-1v-1zm3 0h1v1h-1v-1zm3 0h1v1h-1v-1zm3-8h1v9.006h-1v-9.006zm3 8h1v1h-1v-1zm3 0h1v1h-1v-1zm3 0h1v1h-1v-1zm3 0h1v1h-1v-1zm3 0h1v1h-1v-1zm3 0h1v1h-1v-1zm3 0h1v1h-1v-1zm3 0h1v1h-1v-1zm3 0h1v1h-1v-1zm3 0h1v1h-1v-1zm3 0h1v1h-1v-1zm3-8h1v9.006h-1v-9.006zm3 8h1v1h-1v-1zm3 0h1v1h-1v-1zm3 0h1v1h-1v-1zm3 0h1v1h-1v-1zm3 0h1v1h-1v-1zm3 0h1v1h-1v-1zm3 0h1v1h-1v-1zm3 0h1v1h-1v-1zm3 0h1v1h-1v-1zm3 0h1v1h-1v-1zm3 0h1v1h-1v-1zm3-21.013h1v22.014h-1v-22.014zm3 21.013h1v1h-1v-1zm3 0h1v1h-1v-1zm3 0h1v1h-1v-1zm3 0h1v1h-1v-1zm3 0h1v1h-1v-1zm3 0h1v1h-1v-1zm3 0h1v1h-1v-1zm3 0h1v1h-1v-1zm3 0h1v1h-1v-1zm3 0h1v1h-1v-1zm3 0h1v1h-1v-1zm3-8h1v9.006h-1v-9.006zm3 8h1v1h-1v-1zm3 0h1v1h-1v-1zm3 0h1v1h-1v-1zm3 0h1v1h-1v-1zm3 0h1v1h-1v-1zm3 0h1v1h-1v-1zm3 0h1v1h-1v-1zm3 0h1v1h-1v-1zm3 0h1v1h-1v-1zm3 0h1v1h-1v-1zm3 0h1v1h-1v-1zm3-8h1v9.006h-1v-9.006zm3 8h1v1h-1v-1zm3 0h1v1h-1v-1zm3 0h1v1h-1v-1zm3 0h1v1h-1v-1zm3 0h1v1h-1v-1zm3 0h1v1h-1v-1zm3 0h1v1h-1v-1zm3 0h1v1h-1v-1zm3 0h1v1h-1v-1zm3 0h1v1h-1v-1zm3 0h1v1h-1v-1zm3-8h1v9.006h-1v-9.006zm3 8h1v1h-1v-1zm3 0h1v1h-1v-1zm3 0h1v1h-1v-1zm3 0h1v1h-1v-1zm3 0h1v1h-1v-1zm3 0h1v1h-1v-1zm3 0h1v1h-1v-1zm3 0h1v1h-1v-1zm3 0h1v1h-1v-1zm3 0h1v1h-1v-1zm3 0h1v1h-1v-1zm3-8h1v9.006h-1v-9.006zm3 8h1v1h-1v-1zm3 0h1v1h-1v-1zm3 0h1v1h-1v-1zm3 0h1v1h-1v-1zm3 0h1v1h-1v-1zm3 0h1v1h-1v-1zm3 0h1v1h-1v-1zm3 0h1v1h-1v-1zm3 0h1v1h-1v-1zm3 0h1v1h-1v-1zm3 0h1v1h-1v-1zm3-8h1v9.006h-1v-9.006zm3 8h1v1h-1v-1zm3 0h1v1h-1v-1zm3 0h1v1h-1v-1zm3 0h1v1h-1v-1zm3 0h1v1h-1v-1zm3 0h1v1h-1v-1zm3 0h1v1h-1v-1zm3 0h1v1h-1v-1zm3 0h1v1h-1v-1zm3 0h1v1h-1v-1zm3 0h1v1h-1v-1zm3-8h1v9.006h-1v-9.006zm3 8h1v1h-1v-1zm3 0h1v1h-1v-1zm3 0h1v1h-1v-1zm3 0h1v1h-1v-1zm3 0h1v1h-1v-1zm3 0h1v1h-1v-1zm3 0h1v1h-1v-1zm3 0h1v1h-1v-1zm3 0h1v1h-1v-1zm3 0h1v1h-1v-1zm3 0h1v1h-1v-1zm3-8h1v9.006h-1v-9.006zm3 8h1v1h-1v-1zm3 0h1v1h-1v-1zm3 0h1v1h-1v-1zm3 0h1v1h-1v-1zm3 0h1v1h-1v-1zm3 0h1v1h-1v-1zm3 0h1v1h-1v-1zm3 0h1v1h-1v-1zm3 0h1v1h-1v-1zm3 0h1v1h-1v-1zm3 0h1v1h-1v-1zm3-8h1v9.006h-1v-9.006zm3 8h1v1h-1v-1zm3 0h1v1h-1v-1zm3 0h1v1h-1v-1zm3 0h1v1h-1v-1zm3 0h1v1h-1v-1zm3 0h1v1h-1v-1zm3 0h1v1h-1v-1zm3 0h1v1h-1v-1zm3 0h1v1h-1v-1zm3 0h1v1h-1v-1zm3 0h1v1h-1v-1zm3-8h1v9.006h-1v-9.006zm3 8h1v1h-1v-1zm3 0h1v1h-1v-1zm3 0h1v1h-1v-1zm3 0h1v1h-1v-1zm3 0h1v1h-1v-1zm3 0h1v1h-1v-1zm3 0h1v1h-1v-1zm3 0h1v1h-1v-1zm3 0h1v1h-1v-1zm3 0h1v1h-1v-1zm3 0h1v1h-1v-1zm3-8h1v9.006h-1v-9.006zm3 8h1v1h-1v-1zm3 0h1v1h-1v-1zm3 0h1v1h-1v-1zm3 0h1v1h-1v-1zm3 0h1v1h-1v-1zm3 0h1v1h-1v-1zm3 0h1v1h-1v-1zm3 0h1v1h-1v-1zm3 0h1v1h-1v-1zm3 0h1v1h-1v-1zm3 0h1v1h-1v-1zm3-8h1v9.006h-1v-9.006zm3 8h1v1h-1v-1zm3 0h1v1h-1v-1zm3 0h1v1h-1v-1zm3 0h1v1h-1v-1zm3 0h1v1h-1v-1zm3 0h1v1h-1v-1zm3 0h1v1h-1v-1zm3 0h1v1h-1v-1zm3 0h1v1h-1v-1zm3 0h1v1h-1v-1zm3 0h1v1h-1v-1zm3-21.013h1v22.014h-1v-22.014zm3 21.013h1v1h-1v-1zm3 0h1v1h-1v-1zm3 0h1v1h-1v-1zm3 0h1v1h-1v-1zm3 0h1v1h-1v-1zm3 0h1v1h-1v-1zm3 0h1v1h-1v-1zm3 0h1v1h-1v-1zm3 0h1v1h-1v-1zm3 0h1v1h-1v-1zm3 0h1v1h-1v-1zm3-8h1v9.006h-1v-9.006zm3 8h1v1h-1v-1zm3 0h1v1h-1v-1zm3 0h1v1h-1v-1zm3 0h1v1h-1v-1zm3 0h1v1h-1v-1zm3 0h1v1h-1v-1zm3 0h1v1h-1v-1zm3 0h1v1h-1v-1zm3 0h1v1h-1v-1zm3 0h1v1h-1v-1zm3 0h1v1h-1v-1zm3-8h1v9.006h-1v-9.006zm3 8h1v1h-1v-1zm3 0h1v1h-1v-1zm3 0h1v1h-1v-1zm3 0h1v1h-1v-1zm3 0h1v1h-1v-1zm3 0h1v1h-1v-1zm3 0h1v1h-1v-1zm3 0h1v1h-1v-1zm3 0h1v1h-1v-1zm3 0h1v1h-1v-1zm3 0h1v1h-1v-1zm3-8h1v9.006h-1v-9.006zm3 8h1v1h-1v-1zm3 0h1v1h-1v-1zm3 0h1v1h-1v-1zm3 0h1v1h-1v-1zm3 0h1v1h-1v-1zm3 0h1v1h-1v-1zm3 0h1v1h-1v-1zm3 0h1v1h-1v-1zm3 0h1v1h-1v-1zm3 0h1v1h-1v-1zm3 0h1v1h-1v-1zm3-8h1v9.006h-1v-9.006zm3 8h1v1h-1v-1zm3 0h1v1h-1v-1zm3 0h1v1h-1v-1zm3 0h1v1h-1v-1zm3 0h1v1h-1v-1zm3 0h1v1h-1v-1zm3 0h1v1h-1v-1zm3 0h1v1h-1v-1zm3 0h1v1h-1v-1zm3 0h1v1h-1v-1zm3 0h1v1h-1v-1zm3-8h1v9.006h-1v-9.006zm3 8h1v1h-1v-1zm3 0h1v1h-1v-1zm3 0h1v1h-1v-1zm3 0h1v1h-1v-1zm3 0h1v1h-1v-1zm3 0h1v1h-1v-1zm3 0h1v1h-1v-1zm3 0h1v1h-1v-1zm3 0h1v1h-1v-1zm3 0h1v1h-1v-1zm3 0h1v1h-1v-1zm3-8h1v9.006h-1v-9.006zm3 8h1v1h-1v-1zm3 0h1v1h-1v-1zm3 0h1v1h-1v-1zm3 0h1v1h-1v-1zm3 0h1v1h-1v-1zm3 0h1v1h-1v-1zm3 0h1v1h-1v-1zm3 0h1v1h-1v-1zm3 0h1v1h-1v-1zm3 0h1v1h-1v-1zm3 0h1v1h-1v-1zm3-8h1v9.006h-1v-9.006zm3 8h1v1h-1v-1zm3 0h1v1h-1v-1zm3 0h1v1h-1v-1zm3 0h1v1h-1v-1zm3 0h1v1h-1v-1zm3 0h1v1h-1v-1zm3 0h1v1h-1v-1zm3 0h1v1h-1v-1zm3 0h1v1h-1v-1zm3 0h1v1h-1v-1zm3 0h1v1h-1v-1zm3-8h1v9.006h-1v-9.006zm3 8h1v1h-1v-1zm3 0h1v1h-1v-1zm3 0h1v1h-1v-1zm3 0h1v1h-1v-1zm3 0h1v1h-1v-1zm3 0h1v1h-1v-1zm3 0h1v1h-1v-1zm3 0h1v1h-1v-1zm3 0h1v1h-1v-1zm3 0h1v1h-1v-1zm3 0h1v1h-1v-1zm3-8h1v9.006h-1v-9.006zm3 8h1v1h-1v-1zm3 0h1v1h-1v-1zm3 0h1v1h-1v-1zm3 0h1v1h-1v-1zm3 0h1v1h-1v-1zm3 0h1v1h-1v-1zm3 0h1v1h-1v-1zm3 0h1v1h-1v-1zm3 0h1v1h-1v-1zm3 0h1v1h-1v-1zm3 0h1v1h-1v-1z" transform="translate(0 -818.969)"/></svg>