<svg xmlns="http://www.w3.org/2000/svg" width="1600" height="22" viewBox="0 0 1600 22">
  <defs>
    <style>
      .cls-1 {
        fill: #303336;
        fill-rule: evenodd;
      }
    </style>
  </defs>
  <path id="Rectangle_32_copy_16" data-name="Rectangle 32 copy 16" class="cls-1" d="M996,818.954h1v22.014h-1V818.954Zm3,21.013h1v1h-1v-1Zm3,0h1v1h-1v-1Zm3,0h1v1h-1v-1Zm3,0h1v1h-1v-1Zm3,0h1v1h-1v-1Zm3,0h1v1h-1v-1Zm3,0h1v1h-1v-1Zm3,0h1v1h-1v-1Zm3,0h1v1h-1v-1Zm3,0h1v1h-1v-1Zm3,0h1v1h-1v-1Zm3-8h1v9.006h-1v-9.006Zm3,8h1v1h-1v-1Zm3,0h1v1h-1v-1Zm3,0h1v1h-1v-1Zm3,0h1v1h-1v-1Zm3,0h1v1h-1v-1Zm3,0h1v1h-1v-1Zm3,0h1v1h-1v-1Zm3,0h1v1h-1v-1Zm3,0h1v1h-1v-1Zm3,0h1v1h-1v-1Zm3,0h1v1h-1v-1Zm3-8h1v9.006h-1v-9.006Zm3,8h1v1h-1v-1Zm3,0h1v1h-1v-1Zm3,0h1v1h-1v-1Zm3,0h1v1h-1v-1Zm3,0h1v1h-1v-1Zm3,0h1v1h-1v-1Zm3,0h1v1h-1v-1Zm3,0h1v1h-1v-1Zm3,0h1v1h-1v-1Zm3,0h1v1h-1v-1Zm3,0h1v1h-1v-1Zm3-8h1v9.006h-1v-9.006Zm3,8h1v1h-1v-1Zm3,0h1v1h-1v-1Zm3,0h1v1h-1v-1Zm3,0h1v1h-1v-1Zm3,0h1v1h-1v-1Zm3,0h1v1h-1v-1Zm3,0h1v1h-1v-1Zm3,0h1v1h-1v-1Zm3,0h1v1h-1v-1Zm3,0h1v1h-1v-1Zm3,0h1v1h-1v-1Zm3-8h1v9.006h-1v-9.006Zm3,8h1v1h-1v-1Zm3,0h1v1h-1v-1Zm3,0h1v1h-1v-1Zm3,0h1v1h-1v-1Zm3,0h1v1h-1v-1Zm3,0h1v1h-1v-1Zm3,0h1v1h-1v-1Zm3,0h1v1h-1v-1Zm3,0h1v1h-1v-1Zm3,0h1v1h-1v-1Zm3,0h1v1h-1v-1Zm3-8h1v9.006h-1v-9.006Zm3,8h1v1h-1v-1Zm3,0h1v1h-1v-1Zm3,0h1v1h-1v-1Zm3,0h1v1h-1v-1Zm3,0h1v1h-1v-1Zm3,0h1v1h-1v-1Zm3,0h1v1h-1v-1Zm3,0h1v1h-1v-1Zm3,0h1v1h-1v-1Zm3,0h1v1h-1v-1Zm3,0h1v1h-1v-1Zm3-8h1v9.006h-1v-9.006Zm3,8h1v1h-1v-1Zm3,0h1v1h-1v-1Zm3,0h1v1h-1v-1Zm3,0h1v1h-1v-1Zm3,0h1v1h-1v-1Zm3,0h1v1h-1v-1Zm3,0h1v1h-1v-1Zm3,0h1v1h-1v-1Zm3,0h1v1h-1v-1Zm3,0h1v1h-1v-1Zm3,0h1v1h-1v-1Zm3-8h1v9.006h-1v-9.006Zm3,8h1v1h-1v-1Zm3,0h1v1h-1v-1Zm3,0h1v1h-1v-1Zm3,0h1v1h-1v-1Zm3,0h1v1h-1v-1Zm3,0h1v1h-1v-1Zm3,0h1v1h-1v-1Zm3,0h1v1h-1v-1Zm3,0h1v1h-1v-1Zm3,0h1v1h-1v-1Zm3,0h1v1h-1v-1Zm3-8h1v9.006h-1v-9.006Zm3,8h1v1h-1v-1Zm3,0h1v1h-1v-1Zm3,0h1v1h-1v-1Zm3,0h1v1h-1v-1Zm3,0h1v1h-1v-1Zm3,0h1v1h-1v-1Zm3,0h1v1h-1v-1Zm3,0h1v1h-1v-1Zm3,0h1v1h-1v-1Zm3,0h1v1h-1v-1Zm3,0h1v1h-1v-1Zm3-8h1v9.006h-1v-9.006Zm3,8h1v1h-1v-1Zm3,0h1v1h-1v-1Zm3,0h1v1h-1v-1Zm3,0h1v1h-1v-1Zm3,0h1v1h-1v-1Zm3,0h1v1h-1v-1Zm3,0h1v1h-1v-1Zm3,0h1v1h-1v-1Zm3,0h1v1h-1v-1Zm3,0h1v1h-1v-1Zm3,0h1v1h-1v-1Zm3-21.013h1v22.014h-1V818.954Zm3,21.013h1v1h-1v-1Zm3,0h1v1h-1v-1Zm3,0h1v1h-1v-1Zm3,0h1v1h-1v-1Zm3,0h1v1h-1v-1Zm3,0h1v1h-1v-1Zm3,0h1v1h-1v-1Zm3,0h1v1h-1v-1Zm3,0h1v1h-1v-1Zm3,0h1v1h-1v-1Zm3,0h1v1h-1v-1Zm3-8h1v9.006h-1v-9.006Zm3,8h1v1h-1v-1Zm3,0h1v1h-1v-1Zm3,0h1v1h-1v-1Zm3,0h1v1h-1v-1Zm3,0h1v1h-1v-1Zm3,0h1v1h-1v-1Zm3,0h1v1h-1v-1Zm3,0h1v1h-1v-1Zm3,0h1v1h-1v-1Zm3,0h1v1h-1v-1Zm3,0h1v1h-1v-1Zm3-8h1v9.006h-1v-9.006Zm3,8h1v1h-1v-1Zm3,0h1v1h-1v-1Zm3,0h1v1h-1v-1Zm3,0h1v1h-1v-1Zm3,0h1v1h-1v-1Zm3,0h1v1h-1v-1Zm3,0h1v1h-1v-1Zm3,0h1v1h-1v-1Zm3,0h1v1h-1v-1Zm3,0h1v1h-1v-1Zm3,0h1v1h-1v-1Zm3-8h1v9.006h-1v-9.006Zm3,8h1v1h-1v-1Zm3,0h1v1h-1v-1Zm3,0h1v1h-1v-1Zm3,0h1v1h-1v-1Zm3,0h1v1h-1v-1Zm3,0h1v1h-1v-1Zm3,0h1v1h-1v-1Zm3,0h1v1h-1v-1Zm3,0h1v1h-1v-1Zm3,0h1v1h-1v-1Zm3,0h1v1h-1v-1Zm3-8h1v9.006h-1v-9.006Zm3,8h1v1h-1v-1Zm3,0h1v1h-1v-1Zm3,0h1v1h-1v-1Zm3,0h1v1h-1v-1Zm3,0h1v1h-1v-1Zm3,0h1v1h-1v-1Zm3,0h1v1h-1v-1Zm3,0h1v1h-1v-1Zm3,0h1v1h-1v-1Zm3,0h1v1h-1v-1Zm3,0h1v1h-1v-1Zm3-8h1v9.006h-1v-9.006Zm3,8h1v1h-1v-1Zm3,0h1v1h-1v-1Zm3,0h1v1h-1v-1Zm3,0h1v1h-1v-1Zm3,0h1v1h-1v-1Zm3,0h1v1h-1v-1Zm3,0h1v1h-1v-1Zm3,0h1v1h-1v-1Zm3,0h1v1h-1v-1Zm3,0h1v1h-1v-1Zm3,0h1v1h-1v-1Zm3-8h1v9.006h-1v-9.006Zm3,8h1v1h-1v-1Zm3,0h1v1h-1v-1Zm3,0h1v1h-1v-1Zm3,0h1v1h-1v-1Zm3,0h1v1h-1v-1Zm3,0h1v1h-1v-1Zm3,0h1v1h-1v-1Zm3,0h1v1h-1v-1Zm3,0h1v1h-1v-1Zm3,0h1v1h-1v-1Zm3,0h1v1h-1v-1Zm3-8h1v9.006h-1v-9.006Zm3,8h1v1h-1v-1Zm3,0h1v1h-1v-1Zm3,0h1v1h-1v-1Zm3,0h1v1h-1v-1Zm3,0h1v1h-1v-1Zm3,0h1v1h-1v-1Zm3,0h1v1h-1v-1Zm3,0h1v1h-1v-1Zm3,0h1v1h-1v-1Zm3,0h1v1h-1v-1Zm3,0h1v1h-1v-1Zm3-8h1v9.006h-1v-9.006Zm3,8h1v1h-1v-1Zm3,0h1v1h-1v-1Zm3,0h1v1h-1v-1Zm3,0h1v1h-1v-1Zm3,0h1v1h-1v-1Zm3,0h1v1h-1v-1Zm3,0h1v1h-1v-1Zm3,0h1v1h-1v-1Zm3,0h1v1h-1v-1Zm3,0h1v1h-1v-1Zm3,0h1v1h-1v-1Zm3-8h1v9.006h-1v-9.006Zm3,8h1v1h-1v-1Zm3,0h1v1h-1v-1Zm3,0h1v1h-1v-1Zm3,0h1v1h-1v-1Zm3,0h1v1h-1v-1Zm3,0h1v1h-1v-1Zm3,0h1v1h-1v-1Zm3,0h1v1h-1v-1Zm3,0h1v1h-1v-1Zm3,0h1v1h-1v-1Zm3,0h1v1h-1v-1Zm3-8h1v9.006h-1v-9.006Zm3,8h1v1h-1v-1Zm3,0h1v1h-1v-1Zm3,0h1v1h-1v-1Zm3,0h1v1h-1v-1Zm3,0h1v1h-1v-1Zm3,0h1v1h-1v-1Zm3,0h1v1h-1v-1Zm3,0h1v1h-1v-1Zm3,0h1v1h-1v-1Zm3,0h1v1h-1v-1Zm3,0h1v1h-1v-1Zm3-8h1v9.006h-1v-9.006Zm3,8h1v1h-1v-1Zm3,0h1v1h-1v-1Zm3,0h1v1h-1v-1Zm3,0h1v1h-1v-1Zm3,0h1v1h-1v-1Zm3,0h1v1h-1v-1Zm3,0h1v1h-1v-1Zm3,0h1v1h-1v-1Zm3,0h1v1h-1v-1Zm3,0h1v1h-1v-1Zm3,0h1v1h-1v-1Zm3-8h1v9.006h-1v-9.006Zm3,8h1v1h-1v-1Zm3,0h1v1h-1v-1Zm3,0h1v1h-1v-1Zm3,0h1v1h-1v-1Zm3,0h1v1h-1v-1Zm3,0h1v1h-1v-1Zm3,0h1v1h-1v-1Zm3,0h1v1h-1v-1Zm3,0h1v1h-1v-1Zm3,0h1v1h-1v-1Zm3,0h1v1h-1v-1Zm3-8h1v9.006h-1v-9.006Zm3,8h1v1h-1v-1Zm3,0h1v1h-1v-1Zm3,0h1v1h-1v-1Zm3,0h1v1h-1v-1Zm3,0h1v1h-1v-1Zm3,0h1v1h-1v-1Zm3,0h1v1h-1v-1Zm3,0h1v1h-1v-1Zm3,0h1v1h-1v-1Zm3,0h1v1h-1v-1Zm3,0h1v1h-1v-1Zm3-8h1v9.006h-1v-9.006Zm3,8h1v1h-1v-1Zm3,0h1v1h-1v-1Zm3,0h1v1h-1v-1Zm3,0h1v1h-1v-1Zm3,0h1v1h-1v-1Zm3,0h1v1h-1v-1Zm3,0h1v1h-1v-1Zm3,0h1v1h-1v-1Zm3,0h1v1h-1v-1Zm3,0h1v1h-1v-1Zm3,0h1v1h-1v-1Zm3-8h1v9.006h-1v-9.006Zm3,8h1v1h-1v-1Zm3,0h1v1h-1v-1Zm3,0h1v1h-1v-1Zm3,0h1v1h-1v-1Zm3,0h1v1h-1v-1Zm3,0h1v1h-1v-1Zm3,0h1v1h-1v-1Zm3,0h1v1h-1v-1Zm3,0h1v1h-1v-1Zm3,0h1v1h-1v-1Zm3,0h1v1h-1v-1Zm3-21.013h1v22.014h-1V818.954Zm3,21.013h1v1h-1v-1Zm3,0h1v1h-1v-1Zm3,0h1v1h-1v-1Zm3,0h1v1h-1v-1Zm3,0h1v1h-1v-1Zm3,0h1v1h-1v-1Zm3,0h1v1h-1v-1Zm3,0h1v1h-1v-1Zm3,0h1v1h-1v-1Zm3,0h1v1h-1v-1Zm3,0h1v1h-1v-1Zm3-8h1v9.006h-1v-9.006Zm3,8h1v1h-1v-1Zm3,0h1v1h-1v-1Zm3,0h1v1h-1v-1Zm3,0h1v1h-1v-1Zm3,0h1v1h-1v-1Zm3,0h1v1h-1v-1Zm3,0h1v1h-1v-1Zm3,0h1v1h-1v-1Zm3,0h1v1h-1v-1Zm3,0h1v1h-1v-1Zm3,0h1v1h-1v-1Zm3-8h1v9.006h-1v-9.006Zm3,8h1v1h-1v-1Zm3,0h1v1h-1v-1Zm3,0h1v1h-1v-1Zm3,0h1v1h-1v-1Zm3,0h1v1h-1v-1Zm3,0h1v1h-1v-1Zm3,0h1v1h-1v-1Zm3,0h1v1h-1v-1Zm3,0h1v1h-1v-1Zm3,0h1v1h-1v-1Zm3,0h1v1h-1v-1Zm3-8h1v9.006h-1v-9.006Zm3,8h1v1h-1v-1Zm3,0h1v1h-1v-1Zm3,0h1v1h-1v-1Zm3,0h1v1h-1v-1Zm3,0h1v1h-1v-1Zm3,0h1v1h-1v-1Zm3,0h1v1h-1v-1Zm3,0h1v1h-1v-1Zm3,0h1v1h-1v-1Zm3,0h1v1h-1v-1Zm3,0h1v1h-1v-1Zm3-8h1v9.006h-1v-9.006Zm3,8h1v1h-1v-1Zm3,0h1v1h-1v-1Zm3,0h1v1h-1v-1Zm3,0h1v1h-1v-1Zm3,0h1v1h-1v-1Zm3,0h1v1h-1v-1Zm3,0h1v1h-1v-1Zm3,0h1v1h-1v-1Zm3,0h1v1h-1v-1Zm3,0h1v1h-1v-1Zm3,0h1v1h-1v-1Zm3-8h1v9.006h-1v-9.006Zm3,8h1v1h-1v-1Zm3,0h1v1h-1v-1Zm3,0h1v1h-1v-1Zm3,0h1v1h-1v-1Zm3,0h1v1h-1v-1Zm3,0h1v1h-1v-1Zm3,0h1v1h-1v-1Zm3,0h1v1h-1v-1Zm3,0h1v1h-1v-1Zm3,0h1v1h-1v-1Zm3,0h1v1h-1v-1ZM-156,818.954h1v22.014h-1V818.954Zm3,21.013h1v1h-1v-1Zm3,0h1v1h-1v-1Zm3,0h1v1h-1v-1Zm3,0h1v1h-1v-1Zm3,0h1v1h-1v-1Zm3,0h1v1h-1v-1Zm3,0h1v1h-1v-1Zm3,0h1v1h-1v-1Zm3,0h1v1h-1v-1Zm3,0h1v1h-1v-1Zm3,0h1v1h-1v-1Zm3-8h1v9.006h-1v-9.006Zm3,8h1v1h-1v-1Zm3,0h1v1h-1v-1Zm3,0h1v1h-1v-1Zm3,0h1v1h-1v-1Zm3,0h1v1h-1v-1Zm3,0h1v1h-1v-1Zm3,0h1v1h-1v-1Zm3,0h1v1h-1v-1Zm3,0h1v1h-1v-1Zm3,0h1v1h-1v-1Zm3,0h1v1h-1v-1Zm3-8h1v9.006h-1v-9.006Zm3,8h1v1h-1v-1Zm3,0h1v1h-1v-1Zm3,0h1v1h-1v-1Zm3,0h1v1h-1v-1Zm3,0h1v1h-1v-1Zm3,0h1v1h-1v-1Zm3,0h1v1h-1v-1Zm3,0h1v1h-1v-1Zm3,0h1v1h-1v-1Zm3,0h1v1h-1v-1Zm3,0h1v1h-1v-1Zm3-8h1v9.006h-1v-9.006Zm3,8h1v1h-1v-1Zm3,0h1v1h-1v-1Zm3,0h1v1h-1v-1Zm3,0h1v1h-1v-1Zm3,0h1v1h-1v-1Zm3,0h1v1h-1v-1Zm3,0h1v1h-1v-1Zm3,0h1v1h-1v-1Zm3,0h1v1h-1v-1Zm3,0h1v1h-1v-1Zm3,0h1v1h-1v-1Zm3-8h1v9.006h-1v-9.006Zm3,8h1v1H-9v-1Zm3,0h1v1H-6v-1Zm3,0h1v1H-3v-1Zm3,0H1v1H0v-1Zm3,0H4v1H3v-1Zm3,0H7v1H6v-1Zm3,0h1v1H9v-1Zm3,0h1v1H12v-1Zm3,0h1v1H15v-1Zm3,0h1v1H18v-1Zm3,0h1v1H21v-1Zm3-8h1v9.006H24v-9.006Zm3,8h1v1H27v-1Zm3,0h1v1H30v-1Zm3,0h1v1H33v-1Zm3,0h1v1H36v-1Zm3,0h1v1H39v-1Zm3,0h1v1H42v-1Zm3,0h1v1H45v-1Zm3,0h1v1H48v-1Zm3,0h1v1H51v-1Zm3,0h1v1H54v-1Zm3,0h1v1H57v-1Zm3-8h1v9.006H60v-9.006Zm3,8h1v1H63v-1Zm3,0h1v1H66v-1Zm3,0h1v1H69v-1Zm3,0h1v1H72v-1Zm3,0h1v1H75v-1Zm3,0h1v1H78v-1Zm3,0h1v1H81v-1Zm3,0h1v1H84v-1Zm3,0h1v1H87v-1Zm3,0h1v1H90v-1Zm3,0h1v1H93v-1Zm3-8h1v9.006H96v-9.006Zm3,8h1v1H99v-1Zm3,0h1v1h-1v-1Zm3,0h1v1h-1v-1Zm3,0h1v1h-1v-1Zm3,0h1v1h-1v-1Zm3,0h1v1h-1v-1Zm3,0h1v1h-1v-1Zm3,0h1v1h-1v-1Zm3,0h1v1h-1v-1Zm3,0h1v1h-1v-1Zm3,0h1v1h-1v-1Zm3-8h1v9.006h-1v-9.006Zm3,8h1v1h-1v-1Zm3,0h1v1h-1v-1Zm3,0h1v1h-1v-1Zm3,0h1v1h-1v-1Zm3,0h1v1h-1v-1Zm3,0h1v1h-1v-1Zm3,0h1v1h-1v-1Zm3,0h1v1h-1v-1Zm3,0h1v1h-1v-1Zm3,0h1v1h-1v-1Zm3,0h1v1h-1v-1Zm3-8h1v9.006h-1v-9.006Zm3,8h1v1h-1v-1Zm3,0h1v1h-1v-1Zm3,0h1v1h-1v-1Zm3,0h1v1h-1v-1Zm3,0h1v1h-1v-1Zm3,0h1v1h-1v-1Zm3,0h1v1h-1v-1Zm3,0h1v1h-1v-1Zm3,0h1v1h-1v-1Zm3,0h1v1h-1v-1Zm3,0h1v1h-1v-1Zm3-21.013h1v22.014h-1V818.954Zm3,21.013h1v1h-1v-1Zm3,0h1v1h-1v-1Zm3,0h1v1h-1v-1Zm3,0h1v1h-1v-1Zm3,0h1v1h-1v-1Zm3,0h1v1h-1v-1Zm3,0h1v1h-1v-1Zm3,0h1v1h-1v-1Zm3,0h1v1h-1v-1Zm3,0h1v1h-1v-1Zm3,0h1v1h-1v-1Zm3-8h1v9.006h-1v-9.006Zm3,8h1v1h-1v-1Zm3,0h1v1h-1v-1Zm3,0h1v1h-1v-1Zm3,0h1v1h-1v-1Zm3,0h1v1h-1v-1Zm3,0h1v1h-1v-1Zm3,0h1v1h-1v-1Zm3,0h1v1h-1v-1Zm3,0h1v1h-1v-1Zm3,0h1v1h-1v-1Zm3,0h1v1h-1v-1Zm3-8h1v9.006h-1v-9.006Zm3,8h1v1h-1v-1Zm3,0h1v1h-1v-1Zm3,0h1v1h-1v-1Zm3,0h1v1h-1v-1Zm3,0h1v1h-1v-1Zm3,0h1v1h-1v-1Zm3,0h1v1h-1v-1Zm3,0h1v1h-1v-1Zm3,0h1v1h-1v-1Zm3,0h1v1h-1v-1Zm3,0h1v1h-1v-1Zm3-8h1v9.006h-1v-9.006Zm3,8h1v1h-1v-1Zm3,0h1v1h-1v-1Zm3,0h1v1h-1v-1Zm3,0h1v1h-1v-1Zm3,0h1v1h-1v-1Zm3,0h1v1h-1v-1Zm3,0h1v1h-1v-1Zm3,0h1v1h-1v-1Zm3,0h1v1h-1v-1Zm3,0h1v1h-1v-1Zm3,0h1v1h-1v-1Zm3-8h1v9.006h-1v-9.006Zm3,8h1v1h-1v-1Zm3,0h1v1h-1v-1Zm3,0h1v1h-1v-1Zm3,0h1v1h-1v-1Zm3,0h1v1h-1v-1Zm3,0h1v1h-1v-1Zm3,0h1v1h-1v-1Zm3,0h1v1h-1v-1Zm3,0h1v1h-1v-1Zm3,0h1v1h-1v-1Zm3,0h1v1h-1v-1Zm3-8h1v9.006h-1v-9.006Zm3,8h1v1h-1v-1Zm3,0h1v1h-1v-1Zm3,0h1v1h-1v-1Zm3,0h1v1h-1v-1Zm3,0h1v1h-1v-1Zm3,0h1v1h-1v-1Zm3,0h1v1h-1v-1Zm3,0h1v1h-1v-1Zm3,0h1v1h-1v-1Zm3,0h1v1h-1v-1Zm3,0h1v1h-1v-1Zm3-8h1v9.006h-1v-9.006Zm3,8h1v1h-1v-1Zm3,0h1v1h-1v-1Zm3,0h1v1h-1v-1Zm3,0h1v1h-1v-1Zm3,0h1v1h-1v-1Zm3,0h1v1h-1v-1Zm3,0h1v1h-1v-1Zm3,0h1v1h-1v-1Zm3,0h1v1h-1v-1Zm3,0h1v1h-1v-1Zm3,0h1v1h-1v-1Zm3-8h1v9.006h-1v-9.006Zm3,8h1v1h-1v-1Zm3,0h1v1h-1v-1Zm3,0h1v1h-1v-1Zm3,0h1v1h-1v-1Zm3,0h1v1h-1v-1Zm3,0h1v1h-1v-1Zm3,0h1v1h-1v-1Zm3,0h1v1h-1v-1Zm3,0h1v1h-1v-1Zm3,0h1v1h-1v-1Zm3,0h1v1h-1v-1Zm3-8h1v9.006h-1v-9.006Zm3,8h1v1h-1v-1Zm3,0h1v1h-1v-1Zm3,0h1v1h-1v-1Zm3,0h1v1h-1v-1Zm3,0h1v1h-1v-1Zm3,0h1v1h-1v-1Zm3,0h1v1h-1v-1Zm3,0h1v1h-1v-1Zm3,0h1v1h-1v-1Zm3,0h1v1h-1v-1Zm3,0h1v1h-1v-1Zm3-8h1v9.006h-1v-9.006Zm3,8h1v1h-1v-1Zm3,0h1v1h-1v-1Zm3,0h1v1h-1v-1Zm3,0h1v1h-1v-1Zm3,0h1v1h-1v-1Zm3,0h1v1h-1v-1Zm3,0h1v1h-1v-1Zm3,0h1v1h-1v-1Zm3,0h1v1h-1v-1Zm3,0h1v1h-1v-1Zm3,0h1v1h-1v-1Zm3-8h1v9.006h-1v-9.006Zm3,8h1v1h-1v-1Zm3,0h1v1h-1v-1Zm3,0h1v1h-1v-1Zm3,0h1v1h-1v-1Zm3,0h1v1h-1v-1Zm3,0h1v1h-1v-1Zm3,0h1v1h-1v-1Zm3,0h1v1h-1v-1Zm3,0h1v1h-1v-1Zm3,0h1v1h-1v-1Zm3,0h1v1h-1v-1Zm3-8h1v9.006h-1v-9.006Zm3,8h1v1h-1v-1Zm3,0h1v1h-1v-1Zm3,0h1v1h-1v-1Zm3,0h1v1h-1v-1Zm3,0h1v1h-1v-1Zm3,0h1v1h-1v-1Zm3,0h1v1h-1v-1Zm3,0h1v1h-1v-1Zm3,0h1v1h-1v-1Zm3,0h1v1h-1v-1Zm3,0h1v1h-1v-1Zm3-21.013h1v22.014h-1V818.954Zm3,21.013h1v1h-1v-1Zm3,0h1v1h-1v-1Zm3,0h1v1h-1v-1Zm3,0h1v1h-1v-1Zm3,0h1v1h-1v-1Zm3,0h1v1h-1v-1Zm3,0h1v1h-1v-1Zm3,0h1v1h-1v-1Zm3,0h1v1h-1v-1Zm3,0h1v1h-1v-1Zm3,0h1v1h-1v-1Zm3-8h1v9.006h-1v-9.006Zm3,8h1v1h-1v-1Zm3,0h1v1h-1v-1Zm3,0h1v1h-1v-1Zm3,0h1v1h-1v-1Zm3,0h1v1h-1v-1Zm3,0h1v1h-1v-1Zm3,0h1v1h-1v-1Zm3,0h1v1h-1v-1Zm3,0h1v1h-1v-1Zm3,0h1v1h-1v-1Zm3,0h1v1h-1v-1Zm3-8h1v9.006h-1v-9.006Zm3,8h1v1h-1v-1Zm3,0h1v1h-1v-1Zm3,0h1v1h-1v-1Zm3,0h1v1h-1v-1Zm3,0h1v1h-1v-1Zm3,0h1v1h-1v-1Zm3,0h1v1h-1v-1Zm3,0h1v1h-1v-1Zm3,0h1v1h-1v-1Zm3,0h1v1h-1v-1Zm3,0h1v1h-1v-1Zm3-8h1v9.006h-1v-9.006Zm3,8h1v1h-1v-1Zm3,0h1v1h-1v-1Zm3,0h1v1h-1v-1Zm3,0h1v1h-1v-1Zm3,0h1v1h-1v-1Zm3,0h1v1h-1v-1Zm3,0h1v1h-1v-1Zm3,0h1v1h-1v-1Zm3,0h1v1h-1v-1Zm3,0h1v1h-1v-1Zm3,0h1v1h-1v-1Zm3-8h1v9.006h-1v-9.006Zm3,8h1v1h-1v-1Zm3,0h1v1h-1v-1Zm3,0h1v1h-1v-1Zm3,0h1v1h-1v-1Zm3,0h1v1h-1v-1Zm3,0h1v1h-1v-1Zm3,0h1v1h-1v-1Zm3,0h1v1h-1v-1Zm3,0h1v1h-1v-1Zm3,0h1v1h-1v-1Zm3,0h1v1h-1v-1Zm3-8h1v9.006h-1v-9.006Zm3,8h1v1h-1v-1Zm3,0h1v1h-1v-1Zm3,0h1v1h-1v-1Zm3,0h1v1h-1v-1Zm3,0h1v1h-1v-1Zm3,0h1v1h-1v-1Zm3,0h1v1h-1v-1Zm3,0h1v1h-1v-1Zm3,0h1v1h-1v-1Zm3,0h1v1h-1v-1Zm3,0h1v1h-1v-1Zm3-8h1v9.006h-1v-9.006Zm3,8h1v1h-1v-1Zm3,0h1v1h-1v-1Zm3,0h1v1h-1v-1Zm3,0h1v1h-1v-1Zm3,0h1v1h-1v-1Zm3,0h1v1h-1v-1Zm3,0h1v1h-1v-1Zm3,0h1v1h-1v-1Zm3,0h1v1h-1v-1Zm3,0h1v1h-1v-1Zm3,0h1v1h-1v-1Zm3-8h1v9.006h-1v-9.006Zm3,8h1v1h-1v-1Zm3,0h1v1h-1v-1Zm3,0h1v1h-1v-1Zm3,0h1v1h-1v-1Zm3,0h1v1h-1v-1Zm3,0h1v1h-1v-1Zm3,0h1v1h-1v-1Zm3,0h1v1h-1v-1Zm3,0h1v1h-1v-1Zm3,0h1v1h-1v-1Zm3,0h1v1h-1v-1Zm3-8h1v9.006h-1v-9.006Zm3,8h1v1h-1v-1Zm3,0h1v1h-1v-1Zm3,0h1v1h-1v-1Zm3,0h1v1h-1v-1Zm3,0h1v1h-1v-1Zm3,0h1v1h-1v-1Zm3,0h1v1h-1v-1Zm3,0h1v1h-1v-1Zm3,0h1v1h-1v-1Zm3,0h1v1h-1v-1Zm3,0h1v1h-1v-1Zm3-8h1v9.006h-1v-9.006Zm3,8h1v1h-1v-1Zm3,0h1v1h-1v-1Zm3,0h1v1h-1v-1Zm3,0h1v1h-1v-1Zm3,0h1v1h-1v-1Zm3,0h1v1h-1v-1Zm3,0h1v1h-1v-1Zm3,0h1v1h-1v-1Zm3,0h1v1h-1v-1Zm3,0h1v1h-1v-1Zm3,0h1v1h-1v-1Z" transform="translate(0 -818.969)"/>
</svg>
