<svg viewBox="0 0 20 20" id="inst-icon" width="100%" height="100%"><path d="M14.3 19.1H5.4c-1.9-.3-3.4-1.6-4.1-3.4-.2-.4-.3-.9-.3-1.3V5.6c.3-2 1.6-3.6 3.4-4.2.5-.2 1-.3 1.5-.4h7.5c.7 0 1.4.1 2.1.3.4.2.7.3 1 .5.3.2.6.4.9.7.3.2.5.5.7.8.2.3.4.7.6 1 0 .1 0 .1.1.2.2.4.3.9.4 1.3v8.9c-.3 1.9-1.6 3.4-3.4 4-.6.2-1 .3-1.5.4zM10 2.6H6.4c-.3 0-.6 0-.9.1-1.7.3-2.9 1.9-2.9 3.6v7.3c0 .3 0 .5.1.8.3 1.8 1.9 3 3.7 3h7.3c.3 0 .6-.1.8-.1 1.7-.4 3-1.9 2.9-3.7V6.3c0-.3 0-.5-.1-.8-.4-1.7-1.9-2.9-3.7-2.9H10zm-4.4 17h-.3c-2.1-.3-3.8-1.7-4.5-3.7-.3-.5-.4-1-.4-1.6v-9C.8 3.2 2.2 1.4 4.2.7 4.8.5 5.3.4 5.9.3h7.5c.8 0 1.5.1 2.3.3.4.1.8.3 1.2.6.4.2.7.4 1 .7.3.3.6.6.8.9l.6 1.2s0 .1.1.1c.1.3.2.7.3 1 0 .1.1.3.1.4v8.8c0 .1 0 .3-.1.4-.3 2.1-1.8 3.8-3.8 4.5l-.1.1c-.4.2-.9.3-1.4.3H5.6zm-.1-1.2h8.8l.9-.3.1-.1c1.6-.5 2.7-1.9 3-3.5V5.8l-.1-.3c0-.3-.1-.5-.2-.8v-.1c-.1-.3-.3-.6-.5-.9-.2-.3-.4-.6-.6-.8-.2-.2-.5-.4-.8-.6-.3-.1-.6-.3-.9-.4-.6-.1-1.2-.2-1.9-.2H5.9c-.4 0-.8.1-1.3.3-1.6.6-2.7 1.9-3 3.6v8.8c0 .4.1.8.3 1.1.6 1.5 1.9 2.6 3.6 2.9zm3.9-.4h-3c-2.1 0-3.9-1.4-4.3-3.5-.1-.2-.1-.5-.1-.9V6.3c0-2 1.4-3.8 3.4-4.3.3 0 .6-.1 1-.1h7.2c2.1 0 3.9 1.4 4.3 3.5.1.3.1.6.1 1v7.3c0 2.1-1.4 3.9-3.4 4.3-.3.1-.6.1-.9.1H9.4zM8.1 3.2H6.4c-.2 0-.5 0-.7.1-1.4.3-2.5 1.5-2.4 3v7.3c0 .2 0 .5.1.7.3 1.4 1.6 2.5 3.1 2.4h7.3c.2 0 .5 0 .7-.1 1.4-.3 2.5-1.5 2.4-3V6.4c0-.2 0-.5-.1-.7-.3-1.5-1.5-2.5-3-2.5H8.1zM10 13.6c-2 0-3.7-1.6-3.7-3.6v-.1c0-2 1.7-3.7 3.7-3.7s3.7 1.7 3.7 3.7c0 2.1-1.6 3.7-3.7 3.7.1 0 0 0 0 0zm2.5-3.7c0-1.4-1.1-2.4-2.5-2.4S7.6 8.6 7.6 10c0 1.3 1.1 2.4 2.5 2.4 1.3.1 2.4-1 2.4-2.5 0 .1 0 .1 0 0zM10 14.4c-2.4 0-4.3-2-4.3-4.4 0-2.4 1.9-4.3 4.3-4.3s4.3 1.9 4.3 4.3c.1 2.4-1.9 4.3-4.3 4.4zm0-1.3v.6-.6zm0-5.5v.6c-1-.1-1.8.8-1.8 1.7 0 .5.2 1 .5 1.3.3.4.8.6 1.3.6 1-.1 1.8-.9 1.8-1.9 0-1-.8-1.8-1.8-1.8v-.5zm5.1-2c0 .4-.4.6-.7.6-.3 0-.6-.3-.6-.6 0-.4.3-.7.6-.7.4 0 .7.3.7.7 0-.1 0-.1 0 0zm-.7 1.3c-.3 0-.7-.2-.9-.4-.2-.2-.4-.6-.4-.9 0-.7.5-1.3 1.2-1.3h.1c.7 0 1.3.5 1.3 1.2 0 .4-.1.7-.4 1-.2.2-.5.3-.9.4zm0-1.5z"></path></svg>